<?xml version="1.0" standalone="no"?>
<!DOCTYPE svg PUBLIC "-//W3C//DTD SVG 20010904//EN"
 "http://www.w3.org/TR/2001/REC-SVG-20010904/DTD/svg10.dtd">
<svg version="1.0" xmlns="http://www.w3.org/2000/svg"
 width="342.000000pt" height="68.000000pt" viewBox="0 0 342.000000 68.000000"
 preserveAspectRatio="xMidYMid meet">

<g transform="translate(0.000000,68.000000) scale(0.100000,-0.100000)"
fill="#000000" stroke="none">
<path d="M343 663 c26 -2 68 -2 95 0 26 2 4 3 -48 3 -52 0 -74 -1 -47 -3z"/>
<path d="M313 643 c9 -2 25 -2 35 0 9 3 1 5 -18 5 -19 0 -27 -2 -17 -5z"/>
<path d="M433 643 c9 -2 25 -2 35 0 9 3 1 5 -18 5 -19 0 -27 -2 -17 -5z"/>
<path d="M135 568 l-60 -63 63 60 c58 55 67 65 59 65 -1 0 -29 -28 -62 -62z"/>
<path d="M595 610 c10 -11 20 -20 23 -20 3 0 -3 9 -13 20 -10 11 -20 20 -23
20 -3 0 3 -9 13 -20z"/>
<path d="M560 612 c0 -4 10 -13 23 -21 22 -14 22 -14 3 8 -20 22 -26 25 -26
13z"/>
<path d="M146 551 c-36 -36 -44 -51 -34 -56 7 -5 10 -4 5 0 -4 5 14 30 40 57
26 26 45 48 42 48 -3 0 -26 -22 -53 -49z"/>
<path d="M555 580 c10 -11 20 -20 23 -20 3 0 -3 9 -13 20 -10 11 -20 20 -23
20 -3 0 3 -9 13 -20z"/>
<path d="M206 575 c-11 -8 -15 -15 -9 -15 6 0 16 7 23 15 16 19 11 19 -14 0z"/>
<path d="M535 570 c10 -11 20 -20 23 -20 3 0 -3 9 -13 20 -10 11 -20 20 -23
20 -3 0 3 -9 13 -20z"/>
<path d="M675 530 c10 -11 20 -20 23 -20 3 0 -3 9 -13 20 -10 11 -20 20 -23
20 -3 0 3 -9 13 -20z"/>
<path d="M650 526 c0 -2 8 -10 18 -17 15 -13 16 -12 3 4 -13 16 -21 21 -21 13z"/>
<path d="M978 523 c7 -3 16 -2 19 1 4 3 -2 6 -13 5 -11 0 -14 -3 -6 -6z"/>
<path d="M1188 523 c7 -3 16 -2 19 1 4 3 -2 6 -13 5 -11 0 -14 -3 -6 -6z"/>
<path d="M1398 523 c7 -3 16 -2 19 1 4 3 -2 6 -13 5 -11 0 -14 -3 -6 -6z"/>
<path d="M2458 523 c6 -2 18 -2 25 0 6 3 1 5 -13 5 -14 0 -19 -2 -12 -5z"/>
<path d="M250 503 c0 -10 -7 -28 -15 -39 -8 -10 -14 -23 -14 -29 0 -5 4 -2 10
8 5 9 15 17 21 17 7 0 6 -5 -2 -15 -9 -10 -9 -15 -1 -15 6 0 11 -11 11 -25 0
-17 -6 -25 -17 -25 -9 0 -14 -3 -10 -6 3 -3 14 -3 25 0 17 6 19 13 16 47 -3
22 0 46 5 53 8 10 6 18 -9 31 -19 18 -20 17 -20 -2z m25 -12 c3 -5 1 -12 -5
-16 -5 -3 -10 1 -10 9 0 18 6 21 15 7z"/>
<path d="M303 495 c0 -14 3 -22 8 -19 5 3 9 1 9 -5 0 -5 -6 -14 -12 -18 -17
-11 -16 -36 1 -47 11 -7 11 -10 0 -18 -11 -8 -10 -9 3 -4 10 3 20 1 23 -4 8
-13 45 -13 45 -1 0 5 -10 7 -21 4 -18 -5 -20 -3 -14 15 5 17 3 21 -9 16 -19
-7 -21 7 -3 25 10 10 8 11 -8 6 -16 -5 -17 -5 -5 3 10 8 18 8 28 0 9 -8 16 -8
25 1 7 8 8 11 1 9 -6 -2 -25 11 -41 29 -30 32 -30 32 -30 8z"/>
<path d="M440 506 c0 -8 -6 -16 -12 -19 -7 -2 -10 -7 -7 -11 4 -4 14 0 23 9
22 23 20 9 -5 -26 -11 -16 -16 -29 -10 -29 5 0 12 -19 14 -42 l4 -43 1 50 c2
29 6 45 10 37 7 -10 9 49 3 81 -2 13 -21 7 -21 -7z"/>
<path d="M495 510 c-3 -6 1 -7 9 -4 11 4 16 0 16 -14 0 -12 -9 -22 -22 -25
-30 -8 -19 -16 13 -10 22 4 25 9 21 34 -4 28 -25 39 -37 19z"/>
<path d="M645 500 c10 -11 20 -20 23 -20 3 0 -3 9 -13 20 -10 11 -20 20 -23
20 -3 0 3 -9 13 -20z"/>
<path d="M922 500 c-12 -11 -24 -31 -28 -45 -8 -32 13 -93 36 -105 33 -18 40
-11 15 15 -33 32 -35 105 -5 135 26 26 10 26 -18 0z"/>
<path d="M1030 502 c29 -24 38 -93 16 -126 -12 -19 -13 -24 -2 -20 19 7 36 49
36 88 0 33 -33 76 -59 76 -8 0 -4 -8 9 -18z"/>
<path d="M1132 500 c-12 -11 -24 -31 -28 -45 -8 -32 13 -93 36 -105 33 -18 40
-11 15 15 -33 32 -35 105 -5 135 26 26 10 26 -18 0z"/>
<path d="M1240 502 c29 -24 38 -93 16 -126 -12 -19 -13 -24 -2 -20 19 7 36 49
36 88 0 33 -33 76 -59 76 -8 0 -4 -8 9 -18z"/>
<path d="M1342 500 c-12 -11 -24 -31 -28 -45 -8 -32 13 -93 36 -105 33 -18 40
-11 15 15 -33 32 -35 105 -5 135 26 26 10 26 -18 0z"/>
<path d="M1450 502 c29 -24 38 -93 16 -126 -12 -19 -13 -24 -2 -20 19 7 36 49
36 88 0 33 -33 76 -59 76 -8 0 -4 -8 9 -18z"/>
<path d="M1537 493 c-7 -37 -4 -38 17 -3 14 25 15 30 3 30 -8 0 -17 -12 -20
-27z"/>
<path d="M1593 488 l-12 -33 19 24 c21 24 26 41 12 41 -4 0 -13 -15 -19 -32z"/>
<path d="M1678 439 c3 -60 0 -84 -10 -90 -8 -6 -1 -8 22 -8 19 0 29 3 23 6 -9
3 -13 30 -13 85 l0 80 40 -3 c21 -2 42 0 46 4 4 4 -19 7 -52 7 l-59 0 3 -81z"/>
<path d="M1818 439 c3 -60 0 -84 -10 -90 -8 -6 2 -8 27 -8 22 1 32 3 23 6 -15
4 -18 17 -18 84 l0 79 28 0 c48 0 67 -34 36 -64 -8 -9 -11 -16 -5 -16 16 0 41
30 41 49 0 29 -22 41 -74 41 l-51 0 3 -81z"/>
<path d="M2035 490 c-19 -36 -19 -54 -1 -20 l14 24 16 -38 c9 -21 16 -40 16
-42 0 -2 -16 -4 -35 -4 -28 0 -33 3 -28 18 9 26 -1 12 -30 -40 l-26 -48 27 0
c17 0 22 3 15 8 -7 4 -10 17 -6 30 4 18 12 22 48 22 36 0 45 -4 50 -21 5 -14
2 -25 -6 -30 -9 -6 0 -9 25 -9 33 0 37 2 25 13 -9 6 -31 47 -49 90 -18 42 -34
77 -36 77 -2 0 -10 -13 -19 -30z"/>
<path d="M2248 450 c4 -63 2 -70 -15 -70 -28 0 -43 20 -43 57 0 20 7 36 18 42
16 10 16 10 0 11 -25 0 -50 -43 -43 -73 6 -24 41 -47 70 -47 21 0 19 -18 -2
-23 -10 -3 0 -5 22 -5 22 0 32 2 23 5 -22 5 -24 23 -3 23 56 0 94 63 59 101
-9 10 -24 19 -33 19 -14 -1 -13 -2 2 -11 10 -6 17 -22 17 -42 0 -37 -15 -57
-43 -57 -17 0 -19 7 -15 70 2 45 0 70 -7 70 -7 0 -9 -25 -7 -70z"/>
<path d="M2398 500 c-32 -24 -40 -65 -23 -107 17 -40 42 -53 97 -52 l43 2 -44
7 c-53 8 -81 38 -81 87 0 23 8 42 25 58 29 30 18 33 -17 5z"/>
<path d="M2506 512 c6 -4 14 -14 17 -22 4 -10 6 -8 6 8 1 15 -5 22 -16 22 -11
0 -14 -3 -7 -8z"/>
<path d="M2578 436 c3 -75 1 -85 -15 -89 -10 -3 0 -5 22 -5 22 0 34 2 28 5 -8
2 -13 22 -13 45 l0 40 51 -46 c69 -62 91 -59 25 4 -29 28 -59 50 -66 50 -8 0
-11 13 -8 40 3 31 0 40 -12 40 -12 0 -14 -14 -12 -84z"/>
<path d="M2666 492 l-19 -27 29 25 c16 14 31 26 33 28 2 1 -2 2 -10 2 -8 0
-23 -13 -33 -28z"/>
<path d="M2768 439 c3 -60 0 -84 -10 -90 -9 -6 -7 -9 8 -9 12 0 28 8 35 17 11
13 11 15 1 9 -11 -7 -13 8 -10 73 2 67 0 81 -12 81 -12 0 -14 -14 -12 -81z"/>
<path d="M2893 508 c-17 -23 -25 -44 -9 -24 15 18 16 15 16 -56 0 -52 -4 -78
-12 -81 -7 -3 5 -5 27 -5 22 0 32 2 22 5 -16 4 -18 14 -15 89 3 83 -5 103 -29
72z"/>
<path d="M2988 439 c3 -60 0 -84 -10 -90 -9 -6 -5 -9 12 -9 15 0 31 9 39 23
13 20 13 21 -3 8 -17 -14 -17 -10 -14 67 2 68 0 82 -12 82 -12 0 -14 -14 -12
-81z"/>
<path d="M3114 508 c-4 -7 -14 -24 -22 -38 l-14 -25 21 25 21 25 0 -72 c0 -48
-4 -73 -12 -76 -7 -3 5 -5 27 -5 22 0 34 2 28 5 -9 3 -13 31 -13 89 0 66 -3
84 -14 84 -8 0 -18 -6 -22 -12z"/>
<path d="M3203 488 l-12 -33 19 24 c21 24 26 41 12 41 -4 0 -13 -15 -19 -32z"/>
<path d="M3265 505 c-3 -8 -7 -22 -10 -30 -8 -25 4 -17 20 15 9 18 11 30 5 30
-6 0 -13 -7 -15 -15z"/>
<path d="M520 424 c0 -9 -6 -14 -13 -11 -7 3 -13 -3 -13 -13 0 -10 4 -16 8
-14 4 3 8 -2 8 -10 0 -9 5 -16 10 -16 6 0 10 18 10 40 0 22 -2 40 -5 40 -3 0
-5 -7 -5 -16z"/>
<path d="M32 395 c0 -16 2 -22 5 -12 2 9 2 23 0 30 -3 6 -5 -1 -5 -18z"/>
<path d="M84 335 c0 -49 1 -71 3 -48 2 23 2 64 0 90 -2 26 -3 8 -3 -42z"/>
<path d="M694 335 c0 -49 1 -71 3 -48 2 23 2 64 0 90 -2 26 -3 8 -3 -42z"/>
<path d="M713 330 c0 -47 2 -66 4 -42 2 23 2 61 0 85 -2 23 -4 4 -4 -43z"/>
<path d="M32 280 c0 -19 2 -27 5 -17 2 9 2 25 0 35 -3 9 -5 1 -5 -18z"/>
<path d="M260 295 c0 -8 -6 -15 -12 -16 -7 0 -4 -4 7 -9 16 -7 17 -9 3 -9 -28
-1 -29 -17 -1 -16 30 0 39 32 16 53 -10 10 -13 10 -13 -3z"/>
<path d="M327 303 c-3 -3 -3 -11 0 -19 3 -8 -3 -17 -12 -20 -11 -5 -13 -9 -6
-14 7 -3 12 -28 13 -55 0 -35 3 -43 10 -31 12 22 32 21 23 -1 -4 -12 -3 -15 4
-8 15 15 2 57 -15 51 -8 -3 -14 -1 -14 4 0 6 7 10 15 10 8 0 15 8 15 18 0 14
-2 15 -10 2 -9 -13 -11 -13 -20 0 -7 12 -5 16 12 18 17 3 18 6 7 13 -12 7 -12
10 -1 18 11 7 11 9 -1 14 -8 3 -17 3 -20 0z"/>
<path d="M425 280 c-3 -5 -2 -10 4 -10 5 0 17 -3 27 -7 12 -4 15 -3 10 6 -6
10 2 12 32 10 23 -2 44 0 48 4 4 4 -20 7 -54 7 -33 0 -64 -4 -67 -10z"/>
<path d="M496 246 c3 -7 -2 -16 -12 -20 -12 -4 -15 -2 -10 9 3 8 0 15 -7 15
-8 0 -13 -18 -14 -52 0 -29 1 -45 4 -35 2 9 14 17 25 17 14 0 18 5 14 15 -3 8
-1 15 4 15 6 0 10 -11 10 -24 0 -18 -6 -26 -22 -28 -21 -3 -20 -4 5 -9 l28 -6
-3 53 c-2 30 -8 56 -15 58 -7 3 -10 -1 -7 -8z"/>
<path d="M246 232 c-3 -6 -1 -14 5 -17 14 -9 20 -2 10 14 -6 8 -11 9 -15 3z"/>
<path d="M245 190 c-8 -13 15 -13 35 0 12 8 11 10 -7 10 -12 0 -25 -4 -28 -10z"/>
<path d="M605 128 l-60 -63 63 60 c58 55 67 65 59 65 -1 0 -29 -28 -62 -62z"/>
<path d="M1895 145 c0 -25 3 -45 8 -45 4 0 7 20 7 45 0 25 -3 45 -7 45 -5 0
-8 -20 -8 -45z"/>
<path d="M1963 145 c0 -27 2 -38 4 -22 2 15 2 37 0 50 -2 12 -4 0 -4 -28z"/>
<path d="M122 164 c10 -10 20 -16 22 -13 3 3 -5 11 -17 18 -21 13 -21 12 -5
-5z"/>
<path d="M281 162 c-10 -10 -16 -12 -19 -4 -2 7 -8 10 -13 6 -14 -8 -1 -24 20
-24 21 0 46 25 34 33 -4 3 -15 -2 -22 -11z"/>
<path d="M1288 140 c9 -22 20 -40 25 -40 4 0 -2 18 -13 40 -26 52 -33 52 -12
0z"/>
<path d="M105 150 c10 -11 20 -20 23 -20 3 0 -3 9 -13 20 -10 11 -20 20 -23
20 -3 0 3 -9 13 -20z"/>
<path d="M615 108 l-60 -63 63 60 c58 55 67 65 59 65 -1 0 -29 -28 -62 -62z"/>
<path d="M1345 130 c0 -16 3 -30 8 -30 4 0 7 14 7 30 0 17 -3 30 -7 30 -5 0
-8 -13 -8 -30z"/>
<path d="M1462 130 c0 -19 2 -27 5 -17 2 9 2 25 0 35 -3 9 -5 1 -5 -18z"/>
<path d="M1502 130 c0 -19 2 -27 5 -17 2 9 2 25 0 35 -3 9 -5 1 -5 -18z"/>
<path d="M1552 130 c0 -19 2 -27 5 -17 2 9 2 25 0 35 -3 9 -5 1 -5 -18z"/>
<path d="M1670 130 c0 -39 6 -39 12 0 3 17 1 30 -4 30 -4 0 -8 -13 -8 -30z"/>
<path d="M1722 130 c0 -19 2 -27 5 -17 2 9 2 25 0 35 -3 9 -5 1 -5 -18z"/>
<path d="M1787 153 c-9 -9 -9 -41 1 -46 4 -3 7 8 7 24 0 16 0 29 -1 29 0 0 -4
-3 -7 -7z"/>
<path d="M1828 133 c5 -21 7 -23 10 -9 2 10 0 22 -6 28 -6 6 -7 0 -4 -19z"/>
<path d="M2036 147 c3 -10 9 -15 12 -12 3 3 0 11 -7 18 -10 9 -11 8 -5 -6z"/>
<path d="M2100 130 c0 -16 4 -30 8 -30 5 0 7 14 4 30 -2 17 -6 30 -8 30 -2 0
-4 -13 -4 -30z"/>
<path d="M2142 130 c0 -19 2 -27 5 -17 2 9 2 25 0 35 -3 9 -5 1 -5 -18z"/>
<path d="M2205 130 c0 -16 3 -30 8 -30 4 0 7 14 7 30 0 17 -3 30 -7 30 -5 0
-8 -13 -8 -30z"/>
<path d="M2245 130 c0 -16 3 -30 8 -30 4 0 7 14 7 30 0 17 -3 30 -7 30 -5 0
-8 -13 -8 -30z"/>
<path d="M2328 130 c-3 -16 -1 -30 4 -30 4 0 8 7 8 17 0 14 3 14 23 -3 19 -17
19 -15 -3 11 -14 17 -26 31 -26 33 -1 2 -4 -11 -6 -28z"/>
<path d="M2402 130 c0 -19 2 -27 5 -17 2 9 2 25 0 35 -3 9 -5 1 -5 -18z"/>
<path d="M2442 130 c0 -19 2 -27 5 -17 2 9 2 25 0 35 -3 9 -5 1 -5 -18z"/>
<path d="M2490 154 c0 -6 7 -19 16 -30 14 -18 14 -18 3 6 -14 31 -19 36 -19
24z"/>
<path d="M2542 130 c0 -19 2 -27 5 -17 2 9 2 25 0 35 -3 9 -5 1 -5 -18z"/>
<path d="M2620 151 c0 -6 4 -13 10 -16 6 -3 7 1 4 9 -7 18 -14 21 -14 7z"/>
<path d="M2728 130 c2 -16 6 -30 8 -30 2 0 4 14 4 30 0 17 -4 30 -8 30 -5 0
-7 -13 -4 -30z"/>
<path d="M2782 130 c0 -19 2 -27 5 -17 2 9 2 25 0 35 -3 9 -5 1 -5 -18z"/>
<path d="M2818 130 c-3 -17 -1 -30 4 -30 4 0 8 14 8 30 0 17 -2 30 -4 30 -2 0
-6 -13 -8 -30z"/>
<path d="M130 97 c30 -31 56 -57 58 -57 10 0 -8 20 -58 65 l-55 49 55 -57z"/>
<path d="M632 93 l-57 -56 55 48 c30 27 59 52 65 57 5 4 5 8 1 8 -4 0 -33 -25
-64 -57z"/>
<path d="M1390 131 c0 -11 4 -22 9 -25 4 -3 6 6 3 19 -5 30 -12 33 -12 6z"/>
<path d="M2000 131 c0 -11 4 -22 9 -25 4 -3 6 6 3 19 -5 30 -12 33 -12 6z"/>
<path d="M2650 131 c0 -11 4 -22 9 -25 4 -3 6 6 3 19 -5 30 -12 33 -12 6z"/>
<path d="M1590 134 c0 -13 18 -39 24 -34 2 3 -2 14 -10 24 -8 11 -14 16 -14
10z"/>
<path d="M2570 131 c0 -6 4 -13 10 -16 6 -3 7 1 4 9 -7 18 -14 21 -14 7z"/>
<path d="M2299 113 c-13 -16 -12 -17 4 -4 16 13 21 21 13 21 -2 0 -10 -8 -17
-17z"/>
<path d="M524 88 l-29 -33 33 29 c30 28 37 36 29 36 -2 0 -16 -15 -33 -32z"/>
<path d="M205 90 c10 -11 20 -20 23 -20 3 0 -3 9 -13 20 -10 11 -20 20 -23 20
-3 0 3 -9 13 -20z"/>
<path d="M195 70 c10 -11 20 -20 23 -20 3 0 -3 9 -13 20 -10 11 -20 20 -23 20
-3 0 3 -9 13 -20z"/>
<path d="M313 43 c9 -2 25 -2 35 0 9 3 1 5 -18 5 -19 0 -27 -2 -17 -5z"/>
<path d="M433 43 c9 -2 25 -2 35 0 9 3 1 5 -18 5 -19 0 -27 -2 -17 -5z"/>
</g>
</svg>
